
<svg xmlns="http://www.w3.org/2000/svg" width="288" height="288" viewBox="0 0 64 64">
<g transform="translate(-18 -18)" fill="#6666ff" class="color000 svgShape">
<path fill="#253764" d="M38,80a15.912,15.912,0,0,0,12-5.53A15.93,15.93,0,0,0,78,64a13.57,13.57,0,0,0-4-9.66l-1.17-1.17-5.66,5.66L68.34,60A5.621,5.621,0,0,1,70,64a8,8,0,0,1-16,0V56h8V48H54V43.26a12.015,12.015,0,1,0-8-.01V48H38v8h8v8a8,8,0,0,1-16,0,5.621,5.621,0,0,1,1.66-4l1.17-1.17-5.66-5.66L26,54.34A13.587,13.587,0,0,0,22,64,16,16,0,0,0,38,80ZM50,28a4,4,0,1,1-4,4A4,4,0,0,1,50,28Z" class="color909090 svgShape"></path>
<rect width="64" height="64" fill="none" transform="translate(18 18)"></rect>
</g>
</svg>
