<svg xmlns="http://www.w3.org/2000/svg" width="32" height="32" viewBox="0 0 32 32"><defs><style>.a{fill:#253764;}.b{fill:none;}</style></defs><g transform="translate(-17.524 -17.521)"><path class="a" d="M35.85,24.79,40.375,18H35.714l-2.2,3.293L31.321,18H26.66l4.525,6.79L18.575,43.706a3.429,3.429,0,0,0,2.852,5.335H45.608a3.429,3.429,0,0,0,2.852-5.335ZM31.122,45.162,33.488,41.5l2.289,3.662Zm9.215,0-5.175-8.3a1.952,1.952,0,0,0-3.288-.024L26.5,45.162H22.271L33.517,28.287,44.764,45.162Z" transform="translate(0 0)"/><rect class="b" width="32" height="32" transform="translate(17.524 17.521)"/></g></svg>