<svg xmlns="http://www.w3.org/2000/svg" width="20.003" height="20.003" viewBox="0 0 20.003 20.003"><defs><style>.a{fill:#253764;}.b{fill:none;}</style></defs><g transform="translate(-109.819 -18)"><path class="a" d="M126.072,18h-12.5a3.751,3.751,0,0,0-3.751,3.751v12.5A3.751,3.751,0,0,0,113.57,38h12.5a3.751,3.751,0,0,0,3.751-3.751v-12.5A3.751,3.751,0,0,0,126.072,18Zm1.25,16.253a1.25,1.25,0,0,1-1.25,1.25h-12.5a1.25,1.25,0,0,1-1.25-1.25v-12.5a1.25,1.25,0,0,1,1.25-1.25h12.5a1.25,1.25,0,0,1,1.25,1.25Z" transform="translate(0 0)"/><rect class="b" width="19.734" height="19.734" transform="translate(109.819 18)"/></g></svg>