<svg xmlns="http://www.w3.org/2000/svg" width="20" height="20" viewBox="0 0 20 20"><defs><style>.a{fill:#253764;}.b{fill:none;}</style></defs><g transform="translate(-18 -18)"><path class="a" d="M26.637,28.593l-2.468-2.468-1.746,1.746,3.341,3.341a1.234,1.234,0,0,0,1.745,0h0L33.318,25.4l-1.746-1.746ZM34.04,18H21.7A3.7,3.7,0,0,0,18,21.7V34.04a3.7,3.7,0,0,0,3.7,3.7H34.04a3.7,3.7,0,0,0,3.7-3.7V21.7A3.7,3.7,0,0,0,34.04,18Zm1.234,16.04a1.234,1.234,0,0,1-1.234,1.234H21.7a1.234,1.234,0,0,1-1.234-1.234V21.7A1.234,1.234,0,0,1,21.7,20.468H34.04A1.234,1.234,0,0,1,35.274,21.7Z" transform="translate(0 0)"/><rect class="b" width="20" height="20" transform="translate(18 18)"/></g></svg>