<svg xmlns="http://www.w3.org/2000/svg" width="24" height="24" viewBox="0 0 24 24"><defs><style>.a{fill:#f0f0f0;}.a,.b{isolation:isolate;}.b{fill:#002f6c;}.c{fill:none;}</style></defs><g transform="translate(227.108 0.187)"><circle class="a" cx="12" cy="12" r="12" transform="translate(-227.108 -0.187)"/><path class="b" d="M-217.921,11.13V1.008a11.921,11.921,0,0,0-3,1.232V11.13h-5.9a12.142,12.142,0,0,0-.1,1.5,12.142,12.142,0,0,0,.1,1.5h5.9v8.891a11.921,11.921,0,0,0,3,1.232V14.13h14.9a12.142,12.142,0,0,0,.1-1.5,12.142,12.142,0,0,0-.1-1.5Z" transform="translate(-0.187 -0.817)"/><rect class="c" width="24" height="24" transform="translate(-227.108 -0.187)"/></g></svg>