<svg xmlns="http://www.w3.org/2000/svg" width="24" height="24" viewBox="0 0 24 24"><defs><style>.a{fill:#0036af;}.b{fill:#ea0000;}.c{fill:#007d35;}.d{fill:#ffd000;}.e{fill:none;}</style></defs><g transform="translate(-76.949 0)"><path class="a" d="M108.949,0a12,12,0,1,1,0,24Z" transform="translate(-20)"/><path class="b" d="M88.949,24a12,12,0,1,1,0-24Z"/><path class="c" d="M100.949.378V23.622a12.025,12.025,0,0,0,3,.378V0A12.025,12.025,0,0,0,100.949.378Z" transform="translate(-15)"/><path class="d" d="M111.949.378a12.022,12.022,0,0,0-3-.378V24a12.022,12.022,0,0,0,3-.378Z" transform="translate(-20)"/><path class="a" d="M95.2,26.5a8.25,8.25,0,1,1,0-16.5v1.5a6.75,6.75,0,1,0,0,13.5Z" transform="translate(-6.251 -6.25)"/><path class="b" d="M108.95,26.5V25a6.75,6.75,0,1,0,0-13.5V10a8.25,8.25,0,1,1,0,16.5Z" transform="translate(-20.001 -6.25)"/><rect class="e" width="24" height="24" transform="translate(76.949 0)"/></g></svg>