<svg xmlns="http://www.w3.org/2000/svg" width="32" height="32" viewBox="0 0 32 32"><defs><style>.a{fill:#253764;}.b{fill:none;}</style></defs><g transform="translate(-18 -18)"><path class="a" d="M46,40a6,6,0,0,1-6-6h0a9.936,9.936,0,0,0,6,2h2V32H46a6,6,0,0,1-6-6h0a9.936,9.936,0,0,0,6,2V24a6,6,0,0,1-6-6H36a6,6,0,0,1-6,6v4a9.936,9.936,0,0,0,6-2h0a6,6,0,0,1-6,6H28v4h2a9.936,9.936,0,0,0,6-2h0a6,6,0,0,1-6,6H26v4h4a9.936,9.936,0,0,0,6-2v8h4V42a9.936,9.936,0,0,0,6,2h4V40Z" transform="translate(-4 0)"/><rect class="b" width="32" height="32" transform="translate(18 18)"/></g></svg>