<svg xmlns="http://www.w3.org/2000/svg" width="16" height="16" viewBox="0 0 16 16">
  <g transform="translate(-18 -18.101)">
    <path
      d="M24.5,27.933,27.931,24.5l1.423,1.423-3.435,3.435Zm8.762-8.763-1.615,1.615a5.283,5.283,0,0,0-6.679.642l-.712.719,1.416,1.416.712-.712A3.27,3.27,0,0,1,31,27.464l-.712.719L31.706,29.6l.712-.712a5.283,5.283,0,0,0,.642-6.679l1.615-1.615ZM20.594,34.682l1.615-1.615a5.283,5.283,0,0,0,6.679-.642l.712-.719-1.416-1.416L27.464,31a3.27,3.27,0,0,1-4.614-4.614l.712-.719-1.416-1.416-.719.712a5.283,5.283,0,0,0-.642,6.679L19.17,33.258Z"
      transform="translate(-0.876 -0.876)" />
  </g>
</svg>