<svg xmlns="http://www.w3.org/2000/svg" width="32.028" height="32" viewBox="0 0 32.028 32">
  <g transform="translate(-17.966 -17.997)">
    <path
      d="M24.11,28.76a2.037,2.037,0,0,0-1.441.6L18.594,33.43a2.037,2.037,0,0,0,0,2.881l0,0L24.283,42,18.594,47.69l2.883,2.883,5.689-5.689,5.689,5.689a2.037,2.037,0,0,0,2.881,0l0,0L39.811,46.5a2.037,2.037,0,0,0,.6-1.441V39.791L45.5,34.7l1.614,1.614L50,33.43,35.737,19.17l-2.883,2.883,1.614,1.614L29.376,28.76ZM36.333,44.212,34.3,46.249,22.918,34.871l2.037-2.037h4.426l6.952,6.957Zm1.019-17.667,5.266,5.271L38.37,36.063,33.1,30.8Z"
      transform="translate(-0.031 -1.173)" />
  </g>
</svg>