<svg xmlns="http://www.w3.org/2000/svg" width="40" height="40" viewBox="0 0 40 40"><defs><style>.a{fill:#253764;}.b{fill:none;}</style></defs><g transform="translate(-17.66 -17.66)"><path class="a" d="M49.716,36.334h4.915V24.046a2.458,2.458,0,0,0-2.458-2.458H39.886V26.5h6.353L30.615,42.128a7.987,7.987,0,1,0,3.477,3.477L49.716,29.981ZM26.984,52.308a3.072,3.072,0,1,1,3.072-3.072A3.072,3.072,0,0,1,26.984,52.308Zm4.3-32.968-4.3,4.3-4.3-4.3-3.477,3.477,4.3,4.3-4.3,4.3L22.683,34.9l4.3-4.3,4.3,4.3,3.477-3.477-4.3-4.3,4.3-4.3ZM53.4,41.458l-4.3,4.3-4.3-4.3-3.477,3.477,4.3,4.3-4.3,4.3L44.8,57.014l4.3-4.3,4.3,4.3,3.477-3.477-4.3-4.3,4.3-4.3Z" transform="translate(-0.382 -0.517)"/><rect class="b" width="40" height="40" transform="translate(17.66 17.66)"/></g></svg>