<svg xmlns="http://www.w3.org/2000/svg" width="72.444" height="96" viewBox="0 0 72.444 96"><defs><style>.a{fill:#3650a2;}.b{fill:#ffe600;}.c{fill:#fff;}.d{fill:#e0e1e2;}</style></defs><rect class="a" width="71.107" height="94.64" transform="translate(0.667 0.671)"/><path class="b" d="M86.051,28.333v93.333H16.273V28.333H86.051M87.384,27H14.94v96H87.384Z" transform="translate(-14.94 -27)"/><path class="c" d="M84.773,75.677s1.573-4.4,1.413-6.911-8-15.24-9.582-15.4-1.884,17.28-4.084,20.578-12.724.942-14.609-.787S55.244,53.21,54.142,52.739,48.484,62.01,45.973,66.41s-.316,9.111-.316,9.111-5.658,7.991-5.813,11,3.458,7.556,5.5,11.311,4.244,12.093,4.244,12.093a10.033,10.033,0,0,1,4.084.627,18.8,18.8,0,0,1,3.453,2.2s-2.511-7.693-3.613-9.578-6.284-5.031-5.333-6.76,7.7,7.227,8.8,10.053,1.729,15.871,7.853,15.871,6.6-10.529,8-16.338,8.324-8.484,8.8-7.858-2.511,3.3-5.182,5.813-3.458,8.484-2.667,9.111,1.413-1.569,2.827-2.982,3.929-.316,3.929-.316S90.586,89.188,90.755,86.357,84.773,75.677,84.773,75.677ZM74.4,100.339c-3.929,5.969-5.969,19.009-9.738,19.009s-4.244-14.764-9.582-20.422-12.062-10.969-11.942-12.1c.218-1.969,3.3-6.124,4.4-8.64s2.2-9.267,3.3-9.267S56.5,81.646,64.977,81.646s13.2-12.889,14.609-12.889,2.516,5.653,3.929,8.951,4.4,6.6,3.929,8S78.333,94.37,74.4,100.339Z" transform="translate(-28.773 -41.291)"/><path class="d" d="M117.882,118.941l-5.2-9.271s-12.564,5.813-13.978,8-.16,5.653-.316,11.938-.787,15.867.156,16.182,2.356-11.938,4.084-14.138,3.453-1.573,5.182-3.618,3.458-3.3,4.716-6.44c1.1-2.747.636-4.169.5-4.484l2.169,4.644Zm-9.9,2.982c-2.516,2.2-4.4,1.729-6.284.471.787-2.222,1.729-2.667,3.613-4.4a4.309,4.309,0,0,1,4.4-.627S110.5,119.723,107.984,121.923Z" transform="translate(-61.096 -72.928)"/><path class="d" d="M69.476,117.7c-1.418-2.222-13.982-8-13.982-8L50,119.536l2.667,2.827,2.462-5.231c-.129.289-.613,1.711.5,4.493,1.258,3.142,2.987,4.4,4.716,6.44s3.453,1.418,5.182,3.618,3.142,14.449,4.084,14.138.316-9.9.156-16.182S70.889,119.9,69.476,117.7Zm-9.253,4.24c-2.511-2.222-1.729-4.556-1.729-4.556a4.332,4.332,0,0,1,4.4.627c1.884,1.724,2.827,2.2,3.613,4.4C64.6,123.669,62.72,124.14,60.222,121.94Z" transform="translate(-34.418 -72.944)"/></svg>