<svg xmlns="http://www.w3.org/2000/svg" width="40.004" height="40.002" viewBox="0 0 40.004 40.002"><defs><style>.a{fill:none;}.b{fill:#253764;}</style></defs><g transform="translate(-282.632 -17.999)"><rect class="a" width="40.002" height="40.002" transform="translate(282.632 18)"/><path class="b" d="M307.052,42.42l6.613-6.613a11.259,11.259,0,1,1-8.839-8.839l-6.613,6.613a6.25,6.25,0,1,0,8.839,8.839Zm9.644-9.644a14.993,14.993,0,1,1-8.839-8.839l3.789-3.79a20,20,0,1,0,8.84,8.839Zm5.939-9.878h-4.9l0-4.9-7.471,7.471.683.683-10.08,10.08a2.5,2.5,0,1,0,3.536,3.535l10.08-10.081.683.682Z" transform="translate(0)"/></g></svg>