<svg xmlns="http://www.w3.org/2000/svg" width="32" height="32" viewBox="0 0 32 32"><defs><style>.a{fill:#253764;}.b{fill:none;}</style></defs><g transform="translate(-18 -17.712)"><path class="a" d="M45.075,22.638A15.734,15.734,0,0,0,33.856,18h0a15.856,15.856,0,0,0,0,31.713h0A15.9,15.9,0,0,0,49.713,33.856,15.734,15.734,0,0,0,45.075,22.638ZM33.856,45.749h0a11.892,11.892,0,1,1,0-23.785h0a11.892,11.892,0,0,1,0,23.785Zm.991-19.82H30.883v6.937a3.964,3.964,0,0,0,3.964,3.964h5.946V32.865H34.847Z"/><rect class="b" width="32" height="32" transform="translate(18 17.712)"/></g></svg>