<svg xmlns="http://www.w3.org/2000/svg" width="415.999" height="16" viewBox="0 0 415.999 16"><defs><style>.a{fill:#253764;}.b{fill:none;}</style></defs><g transform="translate(-18 -17.999)"><path class="a" d="M25.249,26.584l-1.75-1.75-1.415,1.415,2.457,2.457a1,1,0,0,0,1.414,0h0l4.457-4.457L29,22.835ZM26,18a8,8,0,1,0,8,8A8,8,0,0,0,26,18Zm0,14a6,6,0,1,1,6-6A6,6,0,0,1,26,32Z" transform="translate(0 0)"/><path class="a" d="M25.249,26.584l-1.75-1.75-1.415,1.415,2.457,2.457a1,1,0,0,0,1.414,0h0l4.457-4.457L29,22.835ZM26,18a8,8,0,1,0,8,8A8,8,0,0,0,26,18Zm0,14a6,6,0,1,1,6-6A6,6,0,0,1,26,32Z" transform="translate(400 0)"/><rect class="b" width="16" height="16" transform="translate(18 17.999)"/></g></svg>