<svg xmlns="http://www.w3.org/2000/svg" width="64" height="64" viewBox="0 0 64 64"><defs><style>.a{fill:#909090;}.b{fill:none;}</style></defs><g transform="translate(-18 -18)"><path class="a" d="M46,52.34l-8-8L32.34,50,43.17,60.83a4,4,0,0,0,5.657,0l0,0L67.66,42,62,36.34ZM70,18H30A12,12,0,0,0,18,30V70A12,12,0,0,0,30,82H70A12,12,0,0,0,82,70V30A12,12,0,0,0,70,18Zm4,52a4,4,0,0,1-4,4H30a4,4,0,0,1-4-4V30a4,4,0,0,1,4-4H70a4,4,0,0,1,4,4Z"/><rect class="b" width="64" height="64" transform="translate(18 18)"/></g></svg>