<svg xmlns="http://www.w3.org/2000/svg" width="24" height="24" viewBox="0 0 24 24">
  <g transform="translate(835.475 -86.516)">
    <path class="a"
      d="M-823.012,87.173a12,12,0,0,0-12,12,12,12,0,0,0,10.125,11.854v-8.385h-3.047V99.173h3.047V96.529c0-3.007,1.792-4.669,4.532-4.669a18.451,18.451,0,0,1,2.686.234v2.953h-1.513a1.735,1.735,0,0,0-1.956,1.874v2.251h3.328l-.532,3.469h-2.8v8.385a12,12,0,0,0,10.125-11.854A12,12,0,0,0-823.012,87.173Z"
      transform="translate(-0.462 -0.584)" />
  </g>
</svg>