<svg xmlns="http://www.w3.org/2000/svg" width="24" height="24" viewBox="0 0 24 24">
  <g transform="translate(-223.405 -223.405)">
    <path
      d="M236.7,227.483c3,0,3.358.011,4.544.066a6.216,6.216,0,0,1,2.088.387,3.721,3.721,0,0,1,2.134,2.134,6.216,6.216,0,0,1,.387,2.088c.054,1.186.066,1.541.066,4.544s-.011,3.358-.066,4.544a6.216,6.216,0,0,1-.387,2.088,3.721,3.721,0,0,1-2.134,2.134,6.216,6.216,0,0,1-2.088.387c-1.185.054-1.541.066-4.544.066s-3.358-.011-4.544-.066a6.216,6.216,0,0,1-2.088-.387,3.721,3.721,0,0,1-2.134-2.134,6.216,6.216,0,0,1-.387-2.088c-.054-1.186-.066-1.541-.066-4.544s.011-3.358.066-4.544a6.216,6.216,0,0,1,.387-2.088,3.721,3.721,0,0,1,2.134-2.134,6.216,6.216,0,0,1,2.088-.387c1.186-.054,1.541-.066,4.544-.066m0-2.026c-3.054,0-3.437.013-4.636.068a8.251,8.251,0,0,0-2.73.523,5.748,5.748,0,0,0-3.289,3.289,8.251,8.251,0,0,0-.523,2.73c-.055,1.2-.068,1.583-.068,4.636s.013,3.437.068,4.636a8.251,8.251,0,0,0,.523,2.73,5.748,5.748,0,0,0,3.289,3.289,8.251,8.251,0,0,0,2.73.523c1.2.055,1.583.068,4.636.068s3.437-.013,4.636-.068a8.251,8.251,0,0,0,2.73-.523,5.748,5.748,0,0,0,3.289-3.289,8.251,8.251,0,0,0,.523-2.73c.055-1.2.068-1.583.068-4.636s-.013-3.437-.068-4.636a8.251,8.251,0,0,0-.523-2.73,5.748,5.748,0,0,0-3.289-3.289,8.251,8.251,0,0,0-2.73-.523c-1.2-.055-1.583-.068-4.636-.068Zm0,5.47a5.774,5.774,0,1,0,5.774,5.774A5.774,5.774,0,0,0,236.7,230.927Zm0,9.522a3.748,3.748,0,1,1,3.748-3.748A3.748,3.748,0,0,1,236.7,240.45Zm6-11.1a1.349,1.349,0,1,0,1.349,1.349A1.35,1.35,0,0,0,242.7,229.35Z"
      transform="translate(-1.374 -1.374)" />
  </g>
</svg>