<svg xmlns="http://www.w3.org/2000/svg" width="96.001" height="96.001" viewBox="0 0 96.001 96.001">
  <g transform="translate(-17.769 -17.764)">
    <path
      d="M66,18A48,48,0,1,0,99.943,32.055,48,48,0,0,0,66,18Zm20.85,18.66L77.083,46.5a22.407,22.407,0,0,0-22.17,0l-9.765-9.84a36,36,0,0,1,41.715,0ZM58.573,73.425A10.5,10.5,0,1,1,66,76.5,10.5,10.5,0,0,1,58.573,73.425ZM36.688,45.165l9.75,9.75a22.5,22.5,0,0,0,0,22.155l-9.75,9.75A36,36,0,0,1,36.688,45.165Zm8.46,50.175,9.765-9.84a22.407,22.407,0,0,0,22.17,0l9.78,9.78a36,36,0,0,1-41.715,0Zm50.175-8.505L85.5,77.07a22.5,22.5,0,0,0,0-22.155l9.75-9.75a36,36,0,0,1,.06,41.67Z"
      transform="translate(-0.236 -0.236)" />
  </g>
</svg>