<svg xmlns="http://www.w3.org/2000/svg" width="16.002" height="16" viewBox="0 0 16.002 16"><defs><style>.a{fill:#253764;}.b{fill:none;}</style></defs><g transform="translate(-18 -17.935)"><path class="a" d="M30.323,23H29.8a10.138,10.138,0,0,0,.2-2,3,3,0,0,0-3-3H25.93l-.593.89-3,4.5-.335.5V34h9.353l.5-1.25,1.88-4.7A3.678,3.678,0,0,0,30.323,23Zm1.557,4.3L30,32H24V24.5L27,20a1,1,0,0,1,1,1,8.13,8.13,0,0,1-.25,1.97L27.25,25h3.073a1.678,1.678,0,0,1,1.557,2.3ZM18,24h2V34H18Z" transform="translate(0 -0.065)"/><rect class="b" width="16" height="16" transform="translate(18 17.935)"/></g></svg>