<svg xmlns="http://www.w3.org/2000/svg" width="140" height="53.652" viewBox="0 0 140 53.652"><defs><style>.a{fill:#253764;}</style></defs><g transform="translate(-643 -369)"><path class="a" d="M457.589,75.176h-1.5v-3h1.14c1.75,0,2.378.4,2.378,1.5,0,.971-.533,1.5-2.016,1.5m1.046-5.381h-5.781V82.764h3.233V77.554h2.567a3.9,3.9,0,1,0-.019-7.759M469.626,77.9l1.9-5.04,2.092,5.04Zm3.728-8.14h-3.746l-5.23,12.97H467.8l.971-2.567h5.8l1.065,2.567h3.48ZM487.331,75.1h-1.712V72.152h1.635c1.217,0,1.845.493,1.845,1.464,0,1.1-.874,1.483-1.768,1.483m2.871,1.579a3.357,3.357,0,0,0,2.224-3.176c0-1.939-1.577-3.728-4.241-3.728h-5.8v12.97h3.233V77.477h.932c1.75,0,2.263,2.49,3.651,5.267h3.557c-1.826-3.8-2.226-5.4-3.557-6.066m18.043-6.914H495.618V72.14h4.7V82.734h3.233V72.14h4.7Zm7.336-.009h-3.233v12.97h3.233ZM527.158,80.2a3.959,3.959,0,1,1,4.088-3.957,3.805,3.805,0,0,1-4.088,3.957m0-10.613c-4.888,0-7.436,3.518-7.436,6.656,0,3.31,2.681,6.657,7.436,6.657,4.658,0,7.416-3.328,7.416-6.657,0-3.118-2.529-6.656-7.416-6.656M487.464,92.941c.318.463.521.694.985.694a.911.911,0,0,0,.9-.637.754.754,0,0,0,.059-.318,1.306,1.306,0,0,0-.666-1.072,2.987,2.987,0,0,0-1.507-.29,4.418,4.418,0,0,0-3.562,1.448,2.718,2.718,0,0,0-.666,1.8,3.015,3.015,0,0,0,.869,2.086,7.613,7.613,0,0,0,1.072.985,18.54,18.54,0,0,1,2.693,2.23,1.956,1.956,0,0,1,.435,1.217,1.447,1.447,0,0,1-.378,1.042,3,3,0,0,1-2,.694,2.368,2.368,0,0,1-1.651-.521,1.382,1.382,0,0,1-.318-.666,1.893,1.893,0,0,0-.059-.637,1.053,1.053,0,0,0-1.042-.724.877.877,0,0,0-.927.839,2.769,2.769,0,0,0,2.289,2.462,6.972,6.972,0,0,0,1.3.115,4.649,4.649,0,0,0,3.852-1.621,3.665,3.665,0,0,0,.666-2,2.981,2.981,0,0,0-1.072-2.287,29.023,29.023,0,0,0-2.375-1.826,5.623,5.623,0,0,1-1.738-1.854,1.089,1.089,0,0,1-.145-.579,1.128,1.128,0,0,1,.463-.9,1.763,1.763,0,0,1,1.042-.29,2.036,2.036,0,0,1,1.245.376c.145.087.117.087.233.233m11.314.306c.29.668.551,1.072,1.245,1.1a1.37,1.37,0,0,0,1.13-.869,1.912,1.912,0,0,0,.058-.434,1.841,1.841,0,0,0-1.245-1.68,3.451,3.451,0,0,0-.724-.114c-.927,0-3.011.374-4.779,3.128a10.532,10.532,0,0,0-.869,1.649c-.058.173-.143.318-.2.491a10.09,10.09,0,0,0-.549,2.87,4.366,4.366,0,0,0,1.8,3.676,3.31,3.31,0,0,0,2.142.582,7,7,0,0,0,3.562-.988,3.826,3.826,0,0,0,1.623-2.2c0-.2-.145-.493-.406-.493-.29,0-.463.32-.608.581a3.374,3.374,0,0,1-.694.955,3.8,3.8,0,0,1-2.462.869,2.907,2.907,0,0,1-1.623-.463,2.288,2.288,0,0,1-.752-.869,3.778,3.778,0,0,1-.493-2.144,8.491,8.491,0,0,1,1.565-5.328,2.5,2.5,0,0,1,1.563-1.012c.521,0,.694.607.724.694m13.416,3.476a9.843,9.843,0,0,1-1.187,4.72c-.493.811-.782,1.014-1.217,1.159a2.565,2.565,0,0,1-.782.115,3.034,3.034,0,0,1-1.3-.29,2.174,2.174,0,0,1-1.13-1.969,8.957,8.957,0,0,1-.117-1.506,12.54,12.54,0,0,1,.783-4.662,5.42,5.42,0,0,1,.491-1.014,2.335,2.335,0,0,1,1.8-1.13,2.216,2.216,0,0,1,1.593.551,2.807,2.807,0,0,1,.463.666,7.783,7.783,0,0,1,.609,3.359m1.506-4.055a2.967,2.967,0,0,0-.782-.869,3.281,3.281,0,0,0-2.23-.694,5.909,5.909,0,0,0-4.085,1.679,7.891,7.891,0,0,0-1.39,2.174,12.387,12.387,0,0,0-.9,4.314,5.388,5.388,0,0,0,.173,1.478,4.161,4.161,0,0,0,2.665,2.808,4.762,4.762,0,0,0,1.217.145,5.4,5.4,0,0,0,4.054-1.883,6.935,6.935,0,0,0,.927-1.418,10.924,10.924,0,0,0,1.072-4.662,5.592,5.592,0,0,0-.724-3.071m4.592.348a1.159,1.159,0,0,1,.811-.376,1.015,1.015,0,0,1,1.042.752.562.562,0,0,1,.03.29,10.587,10.587,0,0,1-.465,2.259c-.173.694-.346,1.39-.549,2.084a10.2,10.2,0,0,0-.518,2.717,2.747,2.747,0,0,0,.81,2.086,2.879,2.879,0,0,0,1.938.757,3.919,3.919,0,0,0,2.81-1.39c.143-.145.607-.609,1.042-1.13.26-.318.376-.609.551-.609a.153.153,0,0,1,.143.117,1.4,1.4,0,0,1,0,.609c-.028.289-.028.637-.028.955a1.668,1.668,0,0,0,1.5,1.506,4.464,4.464,0,0,0,3.3-1.794,2.608,2.608,0,0,0,.551-1.275.578.578,0,0,0-.521-.551c-.406,0-.493.551-.521.637a.816.816,0,0,1-.059.261,2.292,2.292,0,0,1-1.187,1.275.871.871,0,0,1-1.07-.456,3.553,3.553,0,0,1-.117-1.252,18.376,18.376,0,0,1,.376-3.417c.087-.638.2-1.275.32-1.911.173-.869.376-1.71.579-2.55.03-.145.058-.261.086-.376a1.893,1.893,0,0,0,.087-.406.527.527,0,0,0-.491-.579,1.575,1.575,0,0,0-.376.028c-.29.03-.581.115-.841.145-.231.058-.782,0-.782.521,0,.348,0,4.489-1.275,7.184-.521,1.1-1.652,2.688-2.947,2.775a1.55,1.55,0,0,1-1.77-1.289,6.207,6.207,0,0,1,.227-1.892c.145-.609.29-1.189.435-1.768a17.178,17.178,0,0,0,.782-3.33,2.564,2.564,0,0,0-1.39-2.2,1.557,1.557,0,0,0-.754-.173,3.922,3.922,0,0,0-2.085.867,2.567,2.567,0,0,0-.927,1.392.548.548,0,0,0,.521.519.519.519,0,0,0,.464-.346,1.119,1.119,0,0,0,.087-.318Zm21.752-1.507a13.142,13.142,0,0,1-2.375-.058.3.3,0,0,1-.173-.29,1.406,1.406,0,0,1,.058-.346c.058-.406.115-.782.173-1.187.145-.869.269-1.432.414-2.3.03-.2.087-.406.115-.609a2.837,2.837,0,0,0,.087-.491c0-.378-.2-.406-.348-.406a17.029,17.029,0,0,0-1.894.7.571.571,0,0,0-.348.521,1.432,1.432,0,0,0,.117.493,3.311,3.311,0,0,1,.058.752,15.222,15.222,0,0,1-.259,2.153c-.028.261-.058.811-.491.811a2.188,2.188,0,0,1-.435-.058c-.231-.03-.463-.03-.724-.058-.115,0-.231-.03-.346-.03-.493,0-.523.638-.523.666a.836.836,0,0,0-.028.261.306.306,0,0,0,.346.29,1.364,1.364,0,0,1,.348,0,5.488,5.488,0,0,1,.7.058c.406,0,.549-.058.752.115a.405.405,0,0,1,.117.261,1.971,1.971,0,0,1-.059.378c-.173,1.506-.376,3.069-.549,4.6-.058.406-.087.839-.145,1.273a9.329,9.329,0,0,0-.145,1.537,4.46,4.46,0,0,0,.493,2.114,2.3,2.3,0,0,0,2,1.013,4.715,4.715,0,0,0,3.477-1.535,2.561,2.561,0,0,0,.7-1.591.722.722,0,0,0-.32-.726.494.494,0,0,0-.231-.058.358.358,0,0,0-.318.233c-.03.058-.03.115-.058.173,0,.087-.03.175-.03.261-.087.261-.175.521-.29.783a2.139,2.139,0,0,1-1.128,1.128,1.315,1.315,0,0,1-.406.058,1.762,1.762,0,0,1-1.187-.434c-.609-.521-.638-.955-.638-2.144a17.827,17.827,0,0,1,.175-2.49c.086-.782.173-1.621.289-2.4.03-.434.115-.81.175-1.273.028-.32,0-1.072.4-1.072a.38.38,0,0,1,.175.028,16.476,16.476,0,0,1,1.679.145c.29,0,.551.058.869.058.378,0,.463-.289.579-.607.115-.29.145-.29.145-.493a.263.263,0,0,0-.231-.29,1.069,1.069,0,0,0-.29.058,2.579,2.579,0,0,1-.464.03M590.8,88.045a3.757,3.757,0,0,1-4.664,2.724,5.15,5.15,0,0,1-2.828-2.387.257.257,0,1,0-.484.173c.324,1.586.276,3.233-1.032,4.211a3.374,3.374,0,0,1-4.708-.689c-1.058-1.343-.413-3.721.9-4.7a.241.241,0,0,0-.079-.456l-6.68-2.046a1.768,1.768,0,0,0-2.156,1.158l-1.24,4.064-.094.3c-.906,2.966,3.216,4.545,4.456,2.123a3.479,3.479,0,0,1,.353,2.606c-.9,3.359-4.707,3.069-6.372.729a.258.258,0,1,0-.456.24,4.972,4.972,0,0,1-1.313,5.9c-1.2,1.123-2.7,1.81-3.919,2.887a14.267,14.267,0,0,0-.675-1.848c-1.261-3.046-2.174-5.87,1.252-8.366a.257.257,0,1,0-.243-.453,4.56,4.56,0,0,1-2.985.014,3.339,3.339,0,0,1-.142-6.148c-.324,2.7,3.973,3.7,4.881.734l.091-.3,1.242-4.064a1.769,1.769,0,0,0-1.14-2.167l-6.678-2.044c-.252-.077-.409.086-.322.334.54,1.544-.254,3.877-1.882,4.4a3.378,3.378,0,0,1-4.289-2.065c-.537-1.542.344-2.934,1.5-4.068.25-.247.007-.579-.3-.416a5.136,5.136,0,0,1-3.679.4,3.981,3.981,0,0,1,2.319-7.591,5.141,5.141,0,0,1,2.829,2.387.256.256,0,1,0,.483-.173c-.324-1.586-.276-3.233,1.032-4.213a3.374,3.374,0,0,1,4.708.691c1.06,1.343.413,3.721-.9,4.7a.241.241,0,0,0,.081.456l6.678,2.044a1.766,1.766,0,0,0,2.156-1.156l1.242-4.066.094-.3c.9-2.968-3.216-4.545-4.458-2.125a3.481,3.481,0,0,1-.353-2.6c.9-3.361,4.709-3.069,6.372-.729a.258.258,0,1,0,.456-.24,4.972,4.972,0,0,1,1.313-5.9c1.2-1.123,2.7-1.81,3.917-2.889a13.912,13.912,0,0,0,.677,1.848c1.263,3.046,2.174,5.872-1.252,8.368a.257.257,0,1,0,.243.453,4.565,4.565,0,0,1,2.987-.014,3.339,3.339,0,0,1,.14,6.148c.325-2.7-3.973-3.7-4.879-.734l-.091.3-1.243,4.064a1.771,1.771,0,0,0,1.14,2.167l6.68,2.044c.25.077.407-.087.322-.334-.54-1.544.253-3.877,1.882-4.4a3.375,3.375,0,0,1,4.288,2.063c.539,1.544-.343,2.936-1.5,4.069a.257.257,0,1,0,.3.414,5.144,5.144,0,0,1,3.679-.4,3.761,3.761,0,0,1,2.343,4.867m-6.6,6.6a23.174,23.174,0,0,1-13.017,8.028,23.887,23.887,0,0,0,8.934-7.533,4.274,4.274,0,0,0,4.024-4.2,5.288,5.288,0,0,0,1.8,1.259,22.1,22.1,0,0,1-1.736,2.445m-18.215,8.2a4.871,4.871,0,0,0,1.465-4.321c3.726,2.286,7.322-1.21,6.645-4.664a4.925,4.925,0,0,0-2.74-3.471,1.228,1.228,0,1,1-2.291.177l.117-.381,1.149-3.761a.4.4,0,0,1,.479-.266l5.306,1.625c-1.948,2.821-.976,5.855,2.008,7.025-3.449,4.569-7.826,7.4-12.138,8.039M551.565,67.226a23.168,23.168,0,0,1,13.017-8.03,23.962,23.962,0,0,0-9.022,7.652,4.273,4.273,0,0,0-4.141,4.206,5.421,5.421,0,0,0-1.693-1.217,21.865,21.865,0,0,1,1.838-2.611m18.115-8.189a4.918,4.918,0,0,0-1.57,4.429c-3.728-2.286-7.323,1.21-6.647,4.664A4.924,4.924,0,0,0,564.2,71.6a1.227,1.227,0,1,1,2.289-.175l-.117.381-1.149,3.761a.4.4,0,0,1-.477.266l-5.307-1.625c1.931-2.794.995-5.8-1.92-6.991,3.44-4.627,7.827-7.505,12.157-8.182M591,82.8a21.934,21.934,0,0,0-5.706-16.6c-.11-.121-.226-.128-.1.026a22.887,22.887,0,0,1,4.146,15.717,5.084,5.084,0,0,0-2.443-.024,4.267,4.267,0,0,0-.612-5.405,21.656,21.656,0,0,0-4.031-12.6,12.71,12.71,0,0,0-2.513-2.417c-.084-.052-.1-.005-.045.052,2.922,2.9,4.777,7.965,4.811,13.906l-.051-.016c-3.3-.957-6.016,1.032-5.974,4.6l-5.307-1.625a.4.4,0,0,1-.248-.488l1.151-3.761.115-.381a1.228,1.228,0,1,1,1.8,1.429,4.924,4.924,0,0,0,4.213-1.343c2.49-2.485,1.464-7.4-2.9-7.588,1.64-1.612,1.453-4,.9-5.571-.443-1.24-2.09-5.176-2.221-6.535-.843,1.021-4.227,3.258-5.393,4.1A23.2,23.2,0,0,0,547.737,69.48l-.068,0a5.623,5.623,0,0,0-3,9.808l.066.047a21.925,21.925,0,0,0,5.724,16.342c.11.122.227.128.107-.024a22.878,22.878,0,0,1-4.164-15.544,5.241,5.241,0,0,0,2.252-.024,4.274,4.274,0,0,0,.824,5.6,21.6,21.6,0,0,0,4.026,12.278,12.716,12.716,0,0,0,2.515,2.417c.082.052.1.005.046-.052-2.894-2.875-4.741-7.86-4.811-13.722,3.233.85,5.858-1.131,5.818-4.643l5.306,1.625a.4.4,0,0,1,.248.486l-1.149,3.763-.117.381a1.228,1.228,0,1,1-1.8-1.429,4.914,4.914,0,0,0-4.211,1.343c-2.492,2.485-1.465,7.4,2.9,7.588-1.64,1.612-1.451,4-.894,5.571.442,1.238,2.088,5.176,2.221,6.535.867-1.053,4.433-3.394,5.491-4.174l.075-.056a23.205,23.205,0,0,0,22.8-11.08A5.643,5.643,0,0,0,591,82.8" transform="translate(190.146 314.826)"/></g></svg>