<svg xmlns="http://www.w3.org/2000/svg" width="32" height="32" viewBox="0 0 32 32">
  <g transform="translate(-18.236 -18.236)">
    <path class="a"
      d="M31.162,50.443a11.635,11.635,0,0,1,.736-4.059H24.059v-2.03l2.709-1.806A13.406,13.406,0,0,1,34.207,40.3h.578a8.177,8.177,0,0,1-.071-1.015v-2.03a8.062,8.062,0,0,1,.076-1.06,4.03,4.03,0,0,1-4.643-4.013V28.118a4.059,4.059,0,0,1,8.118,0v2.425a8.065,8.065,0,0,1,4.059-1.385v-1.04a8.118,8.118,0,0,0-16.236,0v4.059a8.078,8.078,0,0,0,1.9,5.206,17.483,17.483,0,0,0-3.465,1.786l-2.709,1.806L20,42.183v8.26Zm8.585-6.956a7.61,7.61,0,0,0-4.526,6.956H50.443a7.61,7.61,0,0,0-4.526-6.956.8.8,0,0,1-.259-1.3,4.059,4.059,0,0,0,1.233-2.907V37.388a4.151,4.151,0,0,0-3.79-4.2h-.269a4.059,4.059,0,0,0-4.059,4.059v2.03A4.059,4.059,0,0,0,40,42.188a.8.8,0,0,1-.254,1.3Z"
      transform="translate(-0.985 -0.985)" />
  </g>
</svg>