<svg xmlns="http://www.w3.org/2000/svg" width="64" height="64" viewBox="0 0 64 64"><defs><style>.a{fill:none;}.b{fill:#909090;}</style></defs><g transform="translate(-147.137 -18)"><rect class="a" width="64" height="64" transform="translate(147.137 18)"/><path class="b" d="M179.137,18a32,32,0,1,0,32,32A31.966,31.966,0,0,0,179.137,18Zm0,56a24,24,0,1,1,24-24A23.942,23.942,0,0,1,179.137,74Zm4-20h-8v-.486a9.6,9.6,0,0,1,5.362-8.506,2.991,2.991,0,0,0,1.637-2.719,3.1,3.1,0,0,0-2.955-2.956,3,3,0,0,0-3.044,3h-8a11,11,0,0,1,11.155-11,11.076,11.076,0,0,1,10.844,10.844,10.946,10.946,0,0,1-5.991,9.951,1.707,1.707,0,0,0-1.008,1.385Zm-4,4a4,4,0,1,1-4,4A4.012,4.012,0,0,1,179.137,58Z"/></g></svg>