<svg xmlns="http://www.w3.org/2000/svg" width="32" height="32" viewBox="0 0 32 32">
  <g transform="translate(-18 -18)">
    <path class="a"
      d="M49.825,31.135a4,4,0,0,0-3.195-2.7l-5.88-.89-2.66-5.32A4,4,0,0,0,34.53,20h0a4,4,0,0,0-3.56,2.2l-2.66,5.34-5.885.885a4,4,0,0,0-2.2,6.77l4.18,4.115-1,6.03a4,4,0,0,0,5.76,4.185L34.53,46.75,39.9,49.535a4,4,0,0,0,5.76-4.185l-1-6.03,4.18-4.115A4,4,0,0,0,49.825,31.135Zm-9.435,6.8L41.73,46l-7.2-3.735L27.33,46l1.34-8.07-5.64-5.57,7.925-1.195L34.53,24l3.585,7.17,7.915,1.19Z"
      transform="translate(-0.53 -1)" />
  </g>
</svg>