<svg xmlns="http://www.w3.org/2000/svg" width="32" height="32" viewBox="0 0 32 32"><defs><style>.a{fill:#253764;}.b{fill:none;}</style></defs><g transform="translate(-18 -18)"><path class="a" d="M43.06,28.77l3.67-3.67L43.9,22.27l-3.67,3.67A10.868,10.868,0,0,0,36,24.185V19H32v5.185a10.868,10.868,0,0,0-4.23,1.755L24.1,22.27,21.27,25.1l3.67,3.67A10.906,10.906,0,0,0,23.2,33H18v4h5.2a11.005,11.005,0,0,0,.965,2.915l3.575-1.79a7,7,0,1,1,12.5,0l3.575,1.79A10.984,10.984,0,0,0,44.8,37H50V33H44.8A10.906,10.906,0,0,0,43.06,28.77ZM42,43.265A14.258,14.258,0,0,0,34,41a14.258,14.258,0,0,0-8,2.265A10.35,10.35,0,0,1,20,45H18v4h2a14.258,14.258,0,0,0,8-2.265A10.35,10.35,0,0,1,34,45a10.35,10.35,0,0,1,6,1.735A14.258,14.258,0,0,0,48,49h2V45H48A10.35,10.35,0,0,1,42,43.265Z" transform="translate(0 -0.5)"/><rect class="b" width="32" height="32" transform="translate(18 18)"/></g></svg>