<svg xmlns="http://www.w3.org/2000/svg" width="24" height="24" viewBox="0 0 24 24">
  <g transform="translate(313.132 59.132)">
    <path class="a"
      d="M-291.457-48.147c.015.212.015.423.015.637a13.915,13.915,0,0,1-14.01,14.01v0A13.941,13.941,0,0,1-313-35.712a10.03,10.03,0,0,0,1.172.071,9.889,9.889,0,0,0,6.116-2.112,4.93,4.93,0,0,1-4.6-3.419,4.9,4.9,0,0,0,2.223-.085,4.925,4.925,0,0,1-3.95-4.826v-.063a4.889,4.889,0,0,0,2.235.616,4.93,4.93,0,0,1-1.524-6.575,13.977,13.977,0,0,0,10.148,5.144,4.926,4.926,0,0,1,1.424-4.7,4.93,4.93,0,0,1,6.967.213,9.89,9.89,0,0,0,3.127-1.2,4.944,4.944,0,0,1-2.165,2.723A9.8,9.8,0,0,0-289-50.7,10.005,10.005,0,0,1-291.457-48.147Z"
      transform="translate(-0.132 -3.881)" />
  </g>
</svg>