<svg xmlns="http://www.w3.org/2000/svg" width="24.001" height="24" viewBox="0 0 24.001 24">
  <g transform="translate(228.45 3.752)">
    <path class="a"
      d="M-204.95,8.471a3.006,3.006,0,0,0-2.122-2.122c-1.872-.5-9.376-.5-9.376-.5s-7.5,0-9.376.5a3.006,3.006,0,0,0-2.122,2.122,31.242,31.242,0,0,0-.5,5.777,31.239,31.239,0,0,0,.5,5.777,3.005,3.005,0,0,0,2.122,2.122c1.872.5,9.376.5,9.376.5s7.5,0,9.376-.5a3.006,3.006,0,0,0,2.122-2.122,31.239,31.239,0,0,0,.5-5.777A31.242,31.242,0,0,0-204.95,8.471Zm-13.9,9.377v-7.2l6.235,3.6Z"
      transform="translate(0 -6)" />
  </g>
</svg>